<?xml version="1.0" encoding="us-ascii" standalone="no"?><svg xmlns="http://www.w3.org/2000/svg" xmlns:xlink="http://www.w3.org/1999/xlink" contentStyleType="text/css" height="432px" preserveAspectRatio="none" style="width:788px;height:432px;background:#FFFFFF;" version="1.1" viewBox="0 0 788 432" width="788px" zoomAndPan="magnify"><defs/><g><rect fill="#FFFFFF" height="87.3984" style="stroke:#181818;stroke-width:1.0;" width="10" x="479.5" y="127.9922"/><rect fill="#FFFFFF" height="29.1328" style="stroke:#181818;stroke-width:1.0;" width="10" x="479.5" y="297.7891"/><rect fill="#FFFFFF" height="214.9297" style="stroke:#181818;stroke-width:1.0;" width="10" x="715.5" y="157.125"/><rect fill="none" height="104.5313" style="stroke:#000000;stroke-width:1.5;" width="528" x="10" y="259.5234"/><line style="stroke:#181818;stroke-width:0.5;stroke-dasharray:5.0,5.0;" x1="42" x2="42" y1="52.5938" y2="381.0547"/><line style="stroke:#181818;stroke-width:0.5;stroke-dasharray:5.0,5.0;" x1="267.5" x2="267.5" y1="52.5938" y2="381.0547"/><line style="stroke:#181818;stroke-width:0.5;stroke-dasharray:5.0,5.0;" x1="484" x2="484" y1="52.5938" y2="381.0547"/><line style="stroke:#181818;stroke-width:0.5;stroke-dasharray:5.0,5.0;" x1="720.5" x2="720.5" y1="52.5938" y2="381.0547"/><rect fill="#E2E2F0" height="30.2969" rx="2.5" ry="2.5" style="stroke:#181818;stroke-width:0.5;" width="45" x="20" y="21.2969"/><text fill="#000000" font-family="sans-serif" font-size="14" lengthAdjust="spacing" textLength="31" x="27" y="41.292">User</text><rect fill="#E2E2F0" height="30.2969" rx="2.5" ry="2.5" style="stroke:#181818;stroke-width:0.5;" width="45" x="20" y="380.0547"/><text fill="#000000" font-family="sans-serif" font-size="14" lengthAdjust="spacing" textLength="31" x="27" y="400.0498">User</text><rect fill="#E2E2F0" height="46.5938" rx="2.5" ry="2.5" style="stroke:#181818;stroke-width:0.5;" width="140" x="197.5" y="5"/><text fill="#000000" font-family="sans-serif" font-size="14" lengthAdjust="spacing" textLength="66" x="234.5" y="24.9951">Frontend</text><text fill="#000000" font-family="sans-serif" font-size="14" lengthAdjust="spacing" textLength="126" x="204.5" y="41.292">(HTML/JavaScript)</text><rect fill="#E2E2F0" height="46.5938" rx="2.5" ry="2.5" style="stroke:#181818;stroke-width:0.5;" width="140" x="197.5" y="380.0547"/><text fill="#000000" font-family="sans-serif" font-size="14" lengthAdjust="spacing" textLength="66" x="234.5" y="400.0498">Frontend</text><text fill="#000000" font-family="sans-serif" font-size="14" lengthAdjust="spacing" textLength="126" x="204.5" y="416.3467">(HTML/JavaScript)</text><rect fill="#E2E2F0" height="46.5938" rx="2.5" ry="2.5" style="stroke:#181818;stroke-width:0.5;" width="87" x="441" y="5"/><text fill="#000000" font-family="sans-serif" font-size="14" lengthAdjust="spacing" textLength="62" x="453.5" y="24.9951">Backend</text><text fill="#000000" font-family="sans-serif" font-size="14" lengthAdjust="spacing" textLength="73" x="448" y="41.292">(Flask API)</text><rect fill="#E2E2F0" height="46.5938" rx="2.5" ry="2.5" style="stroke:#181818;stroke-width:0.5;" width="87" x="441" y="380.0547"/><text fill="#000000" font-family="sans-serif" font-size="14" lengthAdjust="spacing" textLength="62" x="453.5" y="400.0498">Backend</text><text fill="#000000" font-family="sans-serif" font-size="14" lengthAdjust="spacing" textLength="73" x="448" y="416.3467">(Flask API)</text><rect fill="#E2E2F0" height="46.5938" rx="2.5" ry="2.5" style="stroke:#181818;stroke-width:0.5;" width="124" x="658.5" y="5"/><text fill="#000000" font-family="sans-serif" font-size="14" lengthAdjust="spacing" textLength="100" x="670.5" y="24.9951">Weather Data</text><text fill="#000000" font-family="sans-serif" font-size="14" lengthAdjust="spacing" textLength="110" x="665.5" y="41.292">Fetcher Thread</text><rect fill="#E2E2F0" height="46.5938" rx="2.5" ry="2.5" style="stroke:#181818;stroke-width:0.5;" width="124" x="658.5" y="380.0547"/><text fill="#000000" font-family="sans-serif" font-size="14" lengthAdjust="spacing" textLength="100" x="670.5" y="400.0498">Weather Data</text><text fill="#000000" font-family="sans-serif" font-size="14" lengthAdjust="spacing" textLength="110" x="665.5" y="416.3467">Fetcher Thread</text><rect fill="#FFFFFF" height="87.3984" style="stroke:#181818;stroke-width:1.0;" width="10" x="479.5" y="127.9922"/><rect fill="#FFFFFF" height="29.1328" style="stroke:#181818;stroke-width:1.0;" width="10" x="479.5" y="297.7891"/><rect fill="#FFFFFF" height="214.9297" style="stroke:#181818;stroke-width:1.0;" width="10" x="715.5" y="157.125"/><polygon fill="#181818" points="255.5,94.8594,265.5,98.8594,255.5,102.8594,259.5,98.8594" style="stroke:#181818;stroke-width:1.0;"/><line style="stroke:#181818;stroke-width:1.0;" x1="42.5" x2="261.5" y1="98.8594" y2="98.8594"/><text fill="#000000" font-family="sans-serif" font-size="13" lengthAdjust="spacing" textLength="61" x="49.5" y="78.6606">Enter city</text><text fill="#000000" font-family="sans-serif" font-size="13" lengthAdjust="spacing" textLength="125" x="49.5" y="93.7935">Click "Get Weather"</text><polygon fill="#181818" points="467.5,123.9922,477.5,127.9922,467.5,131.9922,471.5,127.9922" style="stroke:#181818;stroke-width:1.0;"/><line style="stroke:#181818;stroke-width:1.0;" x1="267.5" x2="473.5" y1="127.9922" y2="127.9922"/><text fill="#000000" font-family="sans-serif" font-size="13" lengthAdjust="spacing" textLength="162" x="274.5" y="122.9263">GET /weather?city=[City]</text><polygon fill="#181818" points="703.5,153.125,713.5,157.125,703.5,161.125,707.5,157.125" style="stroke:#181818;stroke-width:1.0;"/><line style="stroke:#181818;stroke-width:1.0;" x1="489.5" x2="709.5" y1="157.125" y2="157.125"/><text fill="#000000" font-family="sans-serif" font-size="13" lengthAdjust="spacing" textLength="192" x="496.5" y="152.0591">Start new thread if city is new</text><polygon fill="#181818" points="500.5,182.2578,490.5,186.2578,500.5,190.2578,496.5,186.2578" style="stroke:#181818;stroke-width:1.0;"/><line style="stroke:#181818;stroke-width:1.0;" x1="494.5" x2="714.5" y1="186.2578" y2="186.2578"/><text fill="#000000" font-family="sans-serif" font-size="13" lengthAdjust="spacing" textLength="202" x="506.5" y="181.1919">Fetch and update weather data</text><polygon fill="#181818" points="278.5,211.3906,268.5,215.3906,278.5,219.3906,274.5,215.3906" style="stroke:#181818;stroke-width:1.0;"/><line style="stroke:#181818;stroke-width:1.0;" x1="272.5" x2="483.5" y1="215.3906" y2="215.3906"/><text fill="#000000" font-family="sans-serif" font-size="13" lengthAdjust="spacing" textLength="170" x="284.5" y="210.3247">Return initial weather data</text><polygon fill="#181818" points="53.5,240.5234,43.5,244.5234,53.5,248.5234,49.5,244.5234" style="stroke:#181818;stroke-width:1.0;"/><line style="stroke:#181818;stroke-width:1.0;" x1="47.5" x2="266.5" y1="244.5234" y2="244.5234"/><text fill="#000000" font-family="sans-serif" font-size="13" lengthAdjust="spacing" textLength="137" x="59.5" y="239.4575">Display weather data</text><path d="M10,259.5234 L88,259.5234 L88,266.6563 L78,276.6563 L10,276.6563 L10,259.5234 " fill="#EEEEEE" style="stroke:#000000;stroke-width:1.5;"/><rect fill="none" height="104.5313" style="stroke:#000000;stroke-width:1.5;" width="528" x="10" y="259.5234"/><text fill="#000000" font-family="sans-serif" font-size="13" font-weight="bold" lengthAdjust="spacing" textLength="33" x="25" y="272.5903">loop</text><text fill="#000000" font-family="sans-serif" font-size="11" font-weight="bold" lengthAdjust="spacing" textLength="115" x="103" y="271.7339">[Every 5 seconds]</text><polygon fill="#181818" points="467.5,293.7891,477.5,297.7891,467.5,301.7891,471.5,297.7891" style="stroke:#181818;stroke-width:1.0;"/><line style="stroke:#181818;stroke-width:1.0;" x1="267.5" x2="473.5" y1="297.7891" y2="297.7891"/><text fill="#000000" font-family="sans-serif" font-size="13" lengthAdjust="spacing" textLength="193" x="274.5" y="292.7231">Poll: GET /weather?city=[City]</text><polygon fill="#181818" points="278.5,322.9219,268.5,326.9219,278.5,330.9219,274.5,326.9219" style="stroke:#181818;stroke-width:1.0;"/><line style="stroke:#181818;stroke-width:1.0;" x1="272.5" x2="483.5" y1="326.9219" y2="326.9219"/><text fill="#000000" font-family="sans-serif" font-size="13" lengthAdjust="spacing" textLength="173" x="284.5" y="321.856">Return latest weather data</text><polygon fill="#181818" points="53.5,352.0547,43.5,356.0547,53.5,360.0547,49.5,356.0547" style="stroke:#181818;stroke-width:1.0;"/><line style="stroke:#181818;stroke-width:1.0;" x1="47.5" x2="266.5" y1="356.0547" y2="356.0547"/><text fill="#000000" font-family="sans-serif" font-size="13" lengthAdjust="spacing" textLength="201" x="59.5" y="350.9888">Update displayed weather data</text><!--SRC=[VP1FJm8n4CNl_HIJFUd1SF92eaRvfqOJ8X0Fuc7IZg6XwJRj0E7RssvtWGfn3vjs-jxCxur3prfgXvPX4SWBTrAenhwsJ5OjxTNp_FsjzufRd4cl7LzNW06wzzBrX7ATJME3OGsFqvSiRnzAzISXhyZ341cNTamiqss-yeGg3yab8H8VtDmVfa8VHl7WGMhUB-t0QBc6Qa8CRSzA7AJHrawFhibe3hrTrZmayztN8Fw_1KhMMsGwa7QUDBKbwyEC8pzOsW4tbA1_6WJG8LMFNJhopbf0D4N0UDuubTGj4CGB5eEFSJ-8Dzw2jfercjAXw8p-D7spl3uCTN06zwLLcBfsCDgItyCj19ArLK50_2xlRreRyyyMa_6C9HN_3MMYEd09bamNSlqbQxCjyXvLZaYgx1Mrlm00]--></g></svg>